# xmcd
# 
# Track frame offsets:
#     150
#     16407
#     34115
#     62085
#     81402
#     102132
#     119947
#     132350
#     151237
#     168635
#     187342
# 
# Disc length: 2764
# 
# Revision: 13
# Processed by: cddbd v1.5.2PL0 Copyright (c) Steve Scherf et al.
# Submitted via: fre:ac v1.1beta1pre2
# 
DISCID=9d0aca0b
DTITLE=BOOWY - “SINGLES”
DYEAR=1988
DGENRE=J-Rock
TTITLE0=ホンキー・トンキー・クレイジー
TTITLE1="16"
TTITLE2=BAD FEELING (12inch Single Version)
TTITLE3=NO. NEW YORK (12inch Single Version)
TTITLE4=わがままジュリエット
TTITLE5=B・BLUE
TTITLE6=WORKING MAN
TTITLE7=ONLY YOU
TTITLE8=MARIONETTE
TTITLE9=季節が君だけを変える (Single Version)
TTITLE10=CLOUDY HEART (Single Version)
EXTD=YEAR: 1988
EXTT0=
EXTT1=
EXTT2=
EXTT3=
EXTT4=
EXTT5=
EXTT6=
EXTT7=
EXTT8=
EXTT9=
EXTT10=
PLAYORDER=
